<svg width="96" height="89" viewBox="0 0 96 89" fill="none" xmlns="http://www.w3.org/2000/svg">
<path d="M95.9692 17.946L0 33.5553V60.0207H0.0108889C-0.0217778 60.4263 0.362056 60.8238 1.21683 61.3083C3.19589 62.4299 27.9899 75.698 29.9444 76.6589C32.3808 77.854 33.8672 78.001 35.9497 76.9638C37.6538 76.1145 88.3143 49.2707 92.9312 46.8179C95.2805 45.5684 96.0509 44.8824 95.9229 44.3162H95.9719V17.946H95.9692Z" fill="#C1694F"/>
<path d="M0 33.5553V60.0207H0.0108889C-0.0217778 60.4264 0.362056 60.8238 1.21683 61.3084C3.19589 62.4299 27.9899 75.698 29.9444 76.659C31.1204 77.2361 32.0705 77.5546 32.977 77.6281V33.5553H0Z" fill="#A0041E"/>
<path d="M59.4834 1.22081C62.4125 -0.298188 62.5132 -0.488744 65.6056 1.15548C68.6981 2.7997 92.4086 15.4417 94.1536 16.37C96.3695 17.5514 97.1807 17.9788 92.9313 20.2383C88.3144 22.6937 37.6539 49.5375 35.9497 50.3842C33.8672 51.4213 32.3809 51.2743 29.9445 50.0793C27.99 49.121 3.19596 35.8529 1.21691 34.7286C-1.01531 33.4628 -0.0952034 32.8068 3.3103 30.9992L59.4834 1.22081Z" fill="#D99E82"/>
<path d="M29.4435 40.2819C34.9747 40.2819 39.4586 38.0394 39.4586 35.273C39.4586 32.5067 34.9747 30.2642 29.4435 30.2642C23.9124 30.2642 19.4285 32.5067 19.4285 35.273C19.4285 38.0394 23.9124 40.2819 29.4435 40.2819Z" fill="#C1694F"/>
<path d="M30.6767 34.029C26.4055 32.6243 21.5518 33.0245 19.4938 34.9518C19.4802 35.0607 19.4285 35.1641 19.4285 35.273C19.4285 38.0388 23.912 40.2819 29.4435 40.2819C32.3372 40.2819 34.9234 39.6585 36.75 38.6785C35.8435 36.7947 33.7936 35.0525 30.6767 34.029Z" fill="#A0041E"/>
<path d="M47.9848 30.6126C53.5159 30.6126 57.9998 28.3701 57.9998 25.6037C57.9998 22.8374 53.5159 20.5948 47.9848 20.5948C42.4536 20.5948 37.9697 22.8374 37.9697 25.6037C37.9697 28.3701 42.4536 30.6126 47.9848 30.6126Z" fill="#C1694F"/>
<path d="M49.2179 24.3596C44.9468 22.955 40.0931 23.3551 38.0351 25.2825C38.0214 25.3914 37.9697 25.4948 37.9697 25.6037C37.9697 28.3695 42.4532 30.6126 47.9848 30.6126C50.8785 30.6126 53.4646 29.9892 55.2912 29.0092C54.3847 27.1254 52.3349 25.3832 49.2179 24.3596Z" fill="#A0041E"/>
<path d="M66.5258 20.9433C72.057 20.9433 76.5408 18.7008 76.5408 15.9344C76.5408 13.1681 72.057 10.9255 66.5258 10.9255C60.9946 10.9255 56.5107 13.1681 56.5107 15.9344C56.5107 18.7008 60.9946 20.9433 66.5258 20.9433Z" fill="#C1694F"/>
<path d="M67.759 14.6903C63.4878 13.2857 58.6341 13.6858 56.5761 15.6132C56.5625 15.7221 56.5107 15.8255 56.5107 15.9344C56.5107 18.7002 60.9942 20.9433 66.5258 20.9433C69.4195 20.9433 72.0029 20.3199 73.8322 19.3399C72.9257 17.4561 70.8759 15.7139 67.759 14.6903Z" fill="#A0041E"/>
<path d="M67 89C78.0457 89 87 80.0457 87 69C87 57.9543 78.0457 49 67 49C55.9543 49 47 57.9543 47 69C47 80.0457 55.9543 89 67 89Z" fill="#4BD37B"/>
<path d="M75.875 56.875L62.0938 71.05L57.5 66.325L52.9062 71.05L62.0938 80.5L80.4688 61.6L75.875 56.875Z" fill="white"/>
</svg>
