<svg width="99" height="103" viewBox="0 0 99 103" fill="none" xmlns="http://www.w3.org/2000/svg">
<path d="M0.676514 14.335C0.676514 6.34776 7.20896 -0.113768 15.2227 0.00158177C22.9852 0.113199 29.2971 6.47929 29.3461 14.2424C29.3737 18.5899 27.4652 22.4917 24.4327 25.1384C24.1126 25.4176 24.1588 25.9273 24.5244 26.1436L27.2254 27.7418C27.6621 28.0003 27.4789 28.6696 26.9714 28.6696L14.7401 28.6666C6.9484 28.5217 0.676514 22.1611 0.676514 14.335Z" fill="#7ACAA6"/>
<path d="M27.2252 27.7419L24.524 26.1437C24.1604 25.9286 24.1099 25.4196 24.4282 25.142C27.4954 22.4672 29.4139 18.5086 29.3444 14.1032C29.224 6.48322 23.0567 0.228216 15.4388 0.00622539C14.3585 -0.0252336 13.3042 0.0631004 12.2881 0.25843C18.8726 1.5207 23.8908 7.32462 23.9345 14.2422C23.9556 17.5923 22.8272 20.6778 20.9208 23.1282C19.7696 24.6079 20.1438 26.7535 21.7572 27.7083L21.8138 27.7417C22.2457 27.9973 22.0704 28.6538 21.5758 28.668L26.9711 28.6693C27.4785 28.6696 27.6619 28.0001 27.2252 27.7419Z" fill="#57BE92"/>
<path d="M70.5236 52.0326H38.0042C29.8821 52.0326 25.4374 42.5672 30.6249 36.3174L30.9134 35.9697C33.1987 33.2164 34.4496 29.7508 34.4496 26.1726V19.9016C34.4497 8.91018 43.3599 0 54.3514 0C65.3428 0 74.253 8.91018 74.253 19.9016V26.3843C74.253 30 75.5302 33.4994 77.8592 36.2651C83.1114 42.5022 78.6777 52.0326 70.5236 52.0326Z" fill="#C59191"/>
<path d="M87.6177 68.1487V89.6474H20.9104V68.3104C20.9104 63.4796 23.8057 59.1198 28.2562 57.2465L39.0251 52.5649L42.6509 50.9884C45.4022 49.7923 47.1813 47.0783 47.1813 44.0781V42.6865H61.345V44.007C61.345 47.0196 63.1419 49.7443 65.9127 50.9316L80.4781 57.1754C84.8183 59.0985 87.6177 63.3996 87.6177 68.1487Z" fill="white"/>
<path d="M39.0241 57.6908C42.6995 58.789 48.1092 59.9603 54.7033 59.845C60.8904 59.7369 65.9693 58.5338 69.5034 57.405L71.2594 53.2235L65.9121 50.9316C63.1419 49.7441 61.3458 47.0204 61.3458 44.0063V42.6868H47.1821V44.0781C47.1821 47.0779 45.4026 49.7918 42.6518 50.9879L38.3208 52.871L39.0241 57.6908Z" fill="#FFCEBF"/>
<path d="M80.4773 57.1745L69.5054 52.4718L69.5034 52.472V89.6471H87.6178V68.1489C87.6178 63.4003 84.8186 59.0983 80.4773 57.1745Z" fill="#8795DE"/>
<path d="M39.0251 52.5649V89.6474H20.9104V68.3104C20.9104 63.4796 23.8057 59.1198 28.2562 57.2465L39.0251 52.5649Z" fill="#8795DE"/>
<path d="M59.1735 50.4609C60.803 50.4609 62.3557 50.1337 63.771 49.5433C62.2528 48.1419 61.3456 46.1477 61.3456 44.0065V42.687H47.182V44.0781C47.182 45.1618 46.9486 46.2078 46.5222 47.1586C48.6669 49.2031 51.5685 50.4608 54.7654 50.4608H59.1735V50.4609Z" fill="#FFB09E"/>
<path d="M68.4199 21.3802V33.0973C68.4199 39.6984 63.0686 45.0494 56.4678 45.0494H52.0598C45.4587 45.0494 40.1077 39.6982 40.1077 33.0973V21.3802C40.1077 17.086 43.5888 13.6047 47.8832 13.6047H60.6445C64.9388 13.6049 68.4199 17.086 68.4199 21.3802Z" fill="#FFCEBF"/>
<path d="M68.4199 27.4765C68.4145 27.4927 68.408 27.5083 68.4032 27.5248C67.9711 29.0169 66.8371 31.8354 64.0968 33.9485C62.8209 34.9326 61.3654 35.6436 59.7711 36.062C59.0485 36.2516 58.6162 36.9912 58.8059 37.7138C58.9655 38.3215 59.5134 38.7237 60.1136 38.7237C60.2272 38.7237 60.3427 38.7093 60.4579 38.6791C62.4044 38.1683 64.1846 37.2976 65.7492 36.0913C66.8297 35.2581 67.7041 34.3378 68.412 33.4125C68.4147 33.3076 68.42 33.2033 68.42 33.0977V27.4765H68.4199Z" fill="#7A6D79"/>
<path d="M58.2875 39.8017H55.1173C53.6742 39.8017 52.5044 38.6318 52.5044 37.1888C52.5044 35.7458 53.6742 34.5759 55.1173 34.5759H58.2875C59.7305 34.5759 60.9004 35.7458 60.9004 37.1888C60.9002 38.632 59.7305 39.8017 58.2875 39.8017Z" fill="#685E68"/>
<path d="M57.0882 10.5036C57.3917 6.6752 61.057 4.13449 64.5649 2.81854C70.3678 6.29556 74.2527 12.6444 74.2527 19.9015V21.2697C73.9319 21.337 73.6127 21.396 73.297 21.4431C71.3645 21.7318 69.7189 21.6068 68.5945 21.4431C61.3495 20.4781 56.7215 15.1274 57.0882 10.5036Z" fill="#B98080"/>
<path d="M54.3512 0C58.8457 0 62.9919 1.49048 66.3235 4.00347C64.6615 6.89538 60.8452 12.6131 53.6891 16.846C48.3766 19.9885 43.3674 21.0445 40.2826 21.4431H34.4497V19.9015C34.4495 8.91018 43.3597 0 54.3512 0V0Z" fill="#C59191"/>
<path d="M76.5983 89.6471H33.2926L30.904 67.1148C30.7347 65.5166 31.9875 64.1239 33.5946 64.1239H76.2965C77.9036 64.1239 79.1564 65.5166 78.9871 67.1148L76.5983 89.6471Z" fill="#EFEDEF"/>
<path d="M76.2963 64.1239H70.885C72.4921 64.1239 73.7449 65.5166 73.5756 67.1148L71.187 89.6473H76.5983L78.9869 67.1148C79.1564 65.5166 77.9036 64.1239 76.2963 64.1239Z" fill="#E5E1E5"/>
<path d="M89.667 91H1.33301C0.596654 91 0 90.4032 0 89.667C0 88.9308 0.596654 88.334 1.33301 88.334H89.667C90.4033 88.334 91 88.9308 91 89.667C91 90.4032 90.4033 91 89.667 91Z" fill="#C9BFC8"/>
<path d="M54.9456 80.6735C57.0376 80.6735 58.7335 78.9776 58.7335 76.8856C58.7335 74.7936 57.0376 73.0977 54.9456 73.0977C52.8536 73.0977 51.1577 74.7936 51.1577 76.8856C51.1577 78.9776 52.8536 80.6735 54.9456 80.6735Z" fill="#C9BFC8"/>
<path d="M9.6003 15.6875C10.3474 15.6875 10.953 15.0819 10.953 14.3348C10.953 13.5877 10.3474 12.9821 9.6003 12.9821C8.8532 12.9821 8.24756 13.5877 8.24756 14.3348C8.24756 15.0819 8.8532 15.6875 9.6003 15.6875Z" fill="white"/>
<path d="M15.0117 15.6875C15.7588 15.6875 16.3644 15.0819 16.3644 14.3348C16.3644 13.5877 15.7588 12.9821 15.0117 12.9821C14.2646 12.9821 13.6589 13.5877 13.6589 14.3348C13.6589 15.0819 14.2646 15.6875 15.0117 15.6875Z" fill="white"/>
<path d="M20.4228 15.6875C21.1699 15.6875 21.7755 15.0819 21.7755 14.3348C21.7755 13.5877 21.1699 12.9821 20.4228 12.9821C19.6757 12.9821 19.0701 13.5877 19.0701 14.3348C19.0701 15.0819 19.6757 15.6875 20.4228 15.6875Z" fill="white"/>
<path d="M79 103C90.0457 103 99 94.0457 99 83C99 71.9543 90.0457 63 79 63C67.9543 63 59 71.9543 59 83C59 94.0457 67.9543 103 79 103Z" fill="#4BD37B"/>
<path d="M87.875 70.875L74.0938 85.05L69.5 80.325L64.9062 85.05L74.0938 94.5L92.4688 75.6L87.875 70.875Z" fill="white"/>
</svg>
