<svg width="96" height="103" viewBox="0 0 96 103" fill="none" xmlns="http://www.w3.org/2000/svg">
<path d="M21.8402 71.1317L8.79688 91H15.7735L28.5136 71.1317H21.8402Z" fill="#94989B"/>
<path d="M21.84 71.1317H15.1667L0 91H8.79667L21.84 71.1317Z" fill="#E6E6E6"/>
<path d="M69.1599 71.1317H62.4866L75.2266 91H82.2032L69.1599 71.1317Z" fill="#94989B"/>
<path d="M69.1599 71.1317L82.2033 91H90.9999L75.8333 71.1317H69.1599Z" fill="#E6E6E6"/>
<path d="M63.7001 72.9516H27.3001L15.7734 90.9999H75.2268L63.7001 72.9516Z" fill="#3E4347"/>
<path d="M76.4401 45.8033H14.5601V9.70665C14.5601 8.79665 30.0301 4.54999 45.5001 4.54999C60.9701 4.54999 76.4401 8.79665 76.4401 9.70665V45.8033Z" fill="#BA573F"/>
<path d="M80.0801 70.525C80.0801 76.1366 11.0718 76.1366 11.0718 70.525V61.2733H80.0801V70.525Z" fill="#C5CDD3"/>
<path d="M69.7668 76.895C69.7668 83.72 21.2334 83.72 21.2334 76.895V65.52H69.7668V76.895Z" fill="#DAE3EA"/>
<path d="M80.08 61.2732H10.9199V15.7732C10.9199 14.5599 28.2099 9.25159 45.4999 9.25159C62.7899 9.25159 80.08 14.5599 80.08 15.7732V61.2732Z" fill="#F14E3A"/>
<path d="M14.5602 17.7449V32.1532L43.8318 27.2999V12.8915C43.5285 11.6782 14.4085 16.5315 14.5602 17.7449Z" fill="#3E4347"/>
<path d="M47.1685 12.8916V27.2999L76.2885 32.0016V17.5933C76.5918 16.5316 47.4718 11.6783 47.1685 12.8916Z" fill="#3E4347"/>
<path d="M54.4484 61.2732H36.5518V32.0016C36.5518 28.2099 54.2968 28.2099 54.2968 32.0016C54.4484 36.5516 54.4484 61.2732 54.4484 61.2732Z" fill="#FDF516"/>
<path d="M45.4999 43.3766C48.3479 43.3766 50.6566 41.1358 50.6566 38.3716C50.6566 35.6075 48.3479 33.3666 45.4999 33.3666C42.652 33.3666 40.3433 35.6075 40.3433 38.3716C40.3433 41.1358 42.652 43.3766 45.4999 43.3766Z" fill="#3E4347"/>
<path d="M30.1817 9.40333C32.8621 9.40333 35.035 7.29832 35.035 4.70166C35.035 2.10501 32.8621 0 30.1817 0C27.5013 0 25.3284 2.10501 25.3284 4.70166C25.3284 7.29832 27.5013 9.40333 30.1817 9.40333Z" fill="#F14E3A"/>
<path d="M60.8182 9.40333C63.4986 9.40333 65.6715 7.29832 65.6715 4.70166C65.6715 2.10501 63.4986 0 60.8182 0C58.1378 0 55.9648 2.10501 55.9648 4.70166C55.9648 7.29832 58.1378 9.40333 60.8182 9.40333Z" fill="#F14E3A"/>
<path d="M61.1216 47.9267C53.5383 46.2583 37.4616 46.2583 29.8783 47.9267C28.8166 48.0783 26.9966 49.14 26.9966 50.8083V56.5717C26.9966 58.0883 28.9683 59.15 29.8783 59.4533C37.4616 61.1217 53.5383 61.1217 61.1216 59.4533C62.1833 59.3017 64.0033 58.24 64.0033 56.5717V50.8083C64.1549 49.14 62.1833 48.0783 61.1216 47.9267ZM60.8183 55.51C60.8183 56.5717 59.3016 57.33 58.3916 57.33C52.0216 58.3917 38.8266 58.3917 32.4566 57.33C31.5466 57.1783 30.0299 56.42 30.0299 55.51V51.7183C30.0299 50.6567 31.5466 49.8983 32.4566 49.8983C38.8266 48.8367 52.0216 48.8367 58.3916 49.8983C59.3016 50.05 60.8183 50.8083 60.8183 51.7183V55.51Z" fill="#FDF516"/>
<path d="M10.9199 52.0217H80.08V55.2067H10.9199V52.0217Z" fill="#FDF516"/>
<path d="M50.5049 52.0217C50.5049 54.7517 48.2299 57.0267 45.4999 57.0267C42.7699 57.0267 40.4949 54.7517 40.4949 52.0217C40.4949 49.2917 42.7699 47.0167 45.4999 47.0167C48.2299 47.0167 50.5049 49.2917 50.5049 52.0217Z" fill="#3E4347"/>
<path d="M45.5001 54.2966C46.7565 54.2966 47.7751 53.278 47.7751 52.0216C47.7751 50.7651 46.7565 49.7466 45.5001 49.7466C44.2437 49.7466 43.2251 50.7651 43.2251 52.0216C43.2251 53.278 44.2437 54.2966 45.5001 54.2966Z" fill="white"/>
<path d="M31.8501 61.2733H59.1501V71.1316H31.8501V61.2733Z" fill="#94989B"/>
<path d="M39.1301 68.0983H42.3151V75.2267H39.1301V68.0983Z" fill="#3E4347"/>
<path d="M48.6853 68.0983H51.8703V75.2267H48.6853V68.0983Z" fill="#3E4347"/>
<path d="M9.40332 61.2733H81.7484V65.52H9.40332V61.2733Z" fill="#94989B"/>
<path d="M36.5518 77.35H54.2968V83.8716H36.5518V77.35Z" fill="#F14E3A"/>
<path d="M81.5967 46.865C81.445 47.775 80.535 48.3817 79.4734 48.23L65.3684 45.8034C64.4584 45.6517 63.7 44.7417 63.8517 43.8317L64.4584 40.6467C64.61 39.7367 65.52 39.13 66.5817 39.2817L80.6867 41.7084C81.5967 41.86 82.355 42.77 82.2034 43.68L81.5967 46.865Z" fill="#3E4347"/>
<path d="M26.845 43.8317C26.9966 44.7417 26.39 45.6517 25.3283 45.8034L11.2233 48.23C10.3133 48.3817 9.25161 47.775 9.09994 46.865L8.49328 43.68C8.34161 42.77 8.94828 41.86 10.0099 41.7084L24.115 39.2817C25.025 39.13 26.0866 39.7367 26.2383 40.6467L26.845 43.8317Z" fill="#3E4347"/>
<path d="M76 103C87.0457 103 96 94.0457 96 83C96 71.9543 87.0457 63 76 63C64.9543 63 56 71.9543 56 83C56 94.0457 64.9543 103 76 103Z" fill="#4BD37B"/>
<path d="M84.875 70.875L71.0938 85.05L66.5 80.325L61.9062 85.05L71.0938 94.5L89.4688 75.6L84.875 70.875Z" fill="white"/>
</svg>
