<svg width="96" height="89" fill="none" xmlns="http://www.w3.org/2000/svg"><path d="M95.97 17.946L0 33.556V60.02h.01c-.032.405.352.803 1.207 1.287 1.979 1.122 26.773 14.39 28.727 15.35 2.437 1.196 3.923 1.343 6.006.306 1.704-.85 52.364-27.693 56.981-30.146 2.35-1.25 3.12-1.936 2.992-2.502h.049v-26.37h-.003z" fill="#C1694F"/><path d="M0 33.555v26.466h.01c-.032.405.352.803 1.207 1.287C3.196 62.43 27.99 75.698 29.944 76.66c1.176.577 2.127.896 3.033.97V33.554H0z" fill="#A0041E"/><path d="M59.483 1.22c2.93-1.518 3.03-1.709 6.123-.065C68.698 2.8 92.409 15.442 94.154 16.37c2.216 1.181 3.027 1.609-1.223 3.868-4.617 2.456-55.277 29.3-56.981 30.146-2.083 1.037-3.57.89-6.006-.305-1.954-.958-26.748-14.226-28.727-15.35-2.232-1.266-1.312-1.922 2.093-3.73L59.483 1.221z" fill="#D99E82"/><path d="M29.444 40.282c5.53 0 10.015-2.243 10.015-5.009 0-2.766-4.484-5.009-10.016-5.009-5.53 0-10.015 2.243-10.015 5.009 0 2.766 4.484 5.009 10.015 5.009z" fill="#C1694F"/><path d="M30.677 34.029c-4.271-1.405-9.125-1.005-11.183.923-.014.109-.066.212-.066.321 0 2.766 4.484 5.009 10.015 5.009 2.894 0 5.48-.623 7.307-1.603-.907-1.884-2.956-3.627-6.073-4.65z" fill="#A0041E"/><path d="M47.985 30.613c5.53 0 10.015-2.243 10.015-5.01 0-2.766-4.484-5.008-10.015-5.008-5.531 0-10.015 2.242-10.015 5.009 0 2.766 4.484 5.009 10.015 5.009z" fill="#C1694F"/><path d="M49.218 24.36c-4.271-1.405-9.125-1.005-11.183.922-.014.11-.065.213-.065.322 0 2.765 4.483 5.009 10.015 5.009 2.894 0 5.48-.624 7.306-1.604-.906-1.884-2.956-3.626-6.073-4.65z" fill="#A0041E"/><path d="M66.526 20.943c5.531 0 10.015-2.242 10.015-5.009 0-2.766-4.484-5.008-10.015-5.008-5.531 0-10.015 2.242-10.015 5.008 0 2.767 4.484 5.01 10.015 5.01z" fill="#C1694F"/><path d="M67.759 14.69c-4.271-1.404-9.125-1.004-11.183.923-.014.11-.065.213-.065.321 0 2.766 4.483 5.01 10.015 5.01 2.894 0 5.477-.624 7.306-1.604-.906-1.884-2.956-3.626-6.073-4.65z" fill="#A0041E"/><path d="M67 89c11.046 0 20-8.954 20-20s-8.954-20-20-20-20 8.954-20 20 8.954 20 20 20z" fill="#4BD37B"/><path d="M75.875 56.875L62.094 71.05 57.5 66.325l-4.594 4.725 9.188 9.45 18.375-18.9-4.594-4.725z" fill="#fff"/></svg>