<svg width="99" height="103" fill="none" xmlns="http://www.w3.org/2000/svg"><path d="M.677 14.335C.677 6.348 7.209-.114 15.223.002c7.762.111 14.074 6.477 14.123 14.24a14.3 14.3 0 01-4.913 10.896.622.622 0 00.091 1.006l2.701 1.598c.437.258.254.928-.254.928l-12.23-.003C6.947 28.522.676 22.16.676 14.335z" fill="#7ACAA6"/><path d="M27.225 27.742l-2.701-1.598a.621.621 0 01-.096-1.002 14.301 14.301 0 004.916-11.039C29.224 6.483 23.057.228 15.44.006a14.446 14.446 0 00-3.15.252c6.584 1.263 11.602 7.067 11.646 13.984a14.272 14.272 0 01-3.014 8.886c-1.151 1.48-.777 3.625.836 4.58l.057.034c.432.255.256.912-.238.926l5.395.001c.508 0 .69-.669.254-.927z" fill="#57BE92"/><path d="M70.524 52.033h-32.52c-8.122 0-12.567-9.466-7.38-15.716l.29-.347a15.34 15.34 0 003.536-9.797v-6.271C34.45 8.91 43.36 0 54.35 0c10.992 0 19.902 8.91 19.902 19.902v6.482a15.34 15.34 0 003.606 9.881c5.252 6.237.819 15.768-7.335 15.768z" fill="#C59191"/><path d="M87.618 68.149v21.498H20.91V68.31c0-4.83 2.896-9.19 7.346-11.064l10.77-4.681 3.625-1.577a7.534 7.534 0 004.53-6.91v-1.392h14.164v1.321a7.535 7.535 0 004.568 6.925l14.565 6.243a12.002 12.002 0 017.14 10.974z" fill="#fff"/><path d="M39.024 57.69a51.639 51.639 0 0015.68 2.155 51.626 51.626 0 0014.8-2.44l1.755-4.181-5.347-2.292a7.535 7.535 0 01-4.566-6.926v-1.32H47.182v1.392c0 3-1.78 5.714-4.53 6.91L38.32 52.87l.703 4.82z" fill="#FFCEBF"/><path d="M80.477 57.175l-10.972-4.703h-.002v37.175h18.115V68.15c0-4.749-2.8-9.05-7.14-10.974zm-41.452-4.61v37.082H20.91V68.31c0-4.83 2.896-9.19 7.346-11.064l10.77-4.681z" fill="#8795DE"/><path d="M59.173 50.46c1.63 0 3.183-.326 4.598-.917a7.534 7.534 0 01-2.425-5.536v-1.32H47.182v1.391a7.52 7.52 0 01-.66 3.08 11.908 11.908 0 008.243 3.303h4.408z" fill="#FFB09E"/><path d="M68.42 21.38v11.717c0 6.601-5.351 11.952-11.952 11.952H52.06c-6.601 0-11.952-5.35-11.952-11.952V21.38a7.775 7.775 0 017.775-7.775h12.761a7.776 7.776 0 017.776 7.775z" fill="#FFCEBF"/><path d="M68.42 27.477l-.017.048c-.432 1.492-1.566 4.31-4.306 6.424a12.043 12.043 0 01-4.326 2.113 1.353 1.353 0 10.687 2.617 14.74 14.74 0 005.291-2.588 14.486 14.486 0 002.663-2.678c.003-.105.008-.21.008-.315v-5.621z" fill="#7A6D79"/><path d="M58.288 39.802h-3.17a2.613 2.613 0 010-5.226h3.17a2.613 2.613 0 010 5.226z" fill="#685E68"/><path d="M57.088 10.504c.304-3.829 3.969-6.37 7.477-7.685 5.803 3.477 9.688 9.825 9.688 17.082v1.369a16.11 16.11 0 01-5.658.173c-7.245-.965-11.873-6.316-11.507-10.94z" fill="#B98080"/><path d="M54.351 0c4.495 0 8.64 1.49 11.972 4.003-1.661 2.892-5.478 8.61-12.634 12.843a35.218 35.218 0 01-13.406 4.597H34.45v-1.542C34.45 8.911 43.36 0 54.35 0z" fill="#C59191"/><path d="M76.598 89.647H33.293l-2.389-22.532a2.706 2.706 0 012.69-2.991h42.702a2.706 2.706 0 012.691 2.99l-2.389 22.533z" fill="#EFEDEF"/><path d="M76.296 64.124h-5.411a2.706 2.706 0 012.69 2.99l-2.388 22.533h5.411l2.389-22.532a2.706 2.706 0 00-2.69-2.991z" fill="#E5E1E5"/><path d="M89.667 91H1.333a1.333 1.333 0 110-2.666h88.334a1.333 1.333 0 110 2.666zM54.946 80.674a3.788 3.788 0 100-7.576 3.788 3.788 0 000 7.576z" fill="#C9BFC8"/><path d="M9.6 15.688a1.353 1.353 0 100-2.706 1.353 1.353 0 000 2.706zm5.412 0a1.353 1.353 0 100-2.706 1.353 1.353 0 000 2.706zm5.411 0a1.353 1.353 0 100-2.706 1.353 1.353 0 000 2.706z" fill="#fff"/><path d="M79 103c11.046 0 20-8.954 20-20s-8.954-20-20-20-20 8.954-20 20 8.954 20 20 20z" fill="#4BD37B"/><path d="M87.875 70.875L74.094 85.05 69.5 80.325l-4.594 4.725 9.188 9.45 18.375-18.9-4.594-4.725z" fill="#fff"/></svg>