<svg width="96" height="103" fill="none" xmlns="http://www.w3.org/2000/svg"><path d="M21.84 71.132L8.797 91h6.976l12.74-19.868H21.84z" fill="#94989B"/><path d="M21.84 71.132h-6.673L0 91h8.797L21.84 71.132z" fill="#E6E6E6"/><path d="M69.16 71.132h-6.673L75.227 91h6.976L69.16 71.132z" fill="#94989B"/><path d="M69.16 71.132L82.203 91H91L75.833 71.132H69.16z" fill="#E6E6E6"/><path d="M63.7 72.952H27.3L15.773 91h59.454L63.7 72.952z" fill="#3E4347"/><path d="M76.44 45.803H14.56V9.707c0-.91 15.47-5.157 30.94-5.157s30.94 4.247 30.94 5.157v36.096z" fill="#BA573F"/><path d="M80.08 70.525c0 5.612-69.008 5.612-69.008 0v-9.252H80.08v9.252z" fill="#C5CDD3"/><path d="M69.767 76.895c0 6.825-48.534 6.825-48.534 0V65.52h48.534v11.375z" fill="#DAE3EA"/><path d="M80.08 61.273H10.92v-45.5c0-1.213 17.29-6.521 34.58-6.521s34.58 5.308 34.58 6.521v45.5z" fill="#F14E3A"/><path d="M14.56 17.745v14.408L43.832 27.3V12.89c-.303-1.213-29.424 3.64-29.272 4.854zm32.609-4.853V27.3l29.12 4.702V17.593c.303-1.061-28.817-5.915-29.12-4.701z" fill="#3E4347"/><path d="M54.448 61.273H36.552V32.002c0-3.792 17.745-3.792 17.745 0 .151 4.55.151 29.271.151 29.271z" fill="#FDF516"/><path d="M45.5 43.377c2.848 0 5.157-2.241 5.157-5.005s-2.31-5.005-5.157-5.005c-2.848 0-5.157 2.24-5.157 5.005 0 2.764 2.309 5.005 5.157 5.005z" fill="#3E4347"/><path d="M30.182 9.403c2.68 0 4.853-2.105 4.853-4.701C35.035 2.105 32.862 0 30.182 0c-2.68 0-4.854 2.105-4.854 4.702 0 2.596 2.173 4.701 4.854 4.701zm30.636 0c2.68 0 4.853-2.105 4.853-4.701C65.671 2.105 63.5 0 60.818 0c-2.68 0-4.853 2.105-4.853 4.702 0 2.596 2.173 4.701 4.853 4.701z" fill="#F14E3A"/><path d="M61.122 47.927c-7.584-1.669-23.66-1.669-31.244 0-1.061.151-2.881 1.213-2.881 2.881v5.764c0 1.516 1.971 2.578 2.881 2.881 7.584 1.669 23.66 1.669 31.244 0 1.061-.151 2.881-1.213 2.881-2.881v-5.764c.152-1.668-1.82-2.73-2.881-2.881zm-.304 7.583c0 1.062-1.516 1.82-2.426 1.82-6.37 1.062-19.565 1.062-25.935 0-.91-.152-2.427-.91-2.427-1.82v-3.792c0-1.061 1.517-1.82 2.427-1.82 6.37-1.061 19.565-1.061 25.935 0 .91.152 2.426.91 2.426 1.82v3.792z" fill="#FDF516"/><path d="M10.92 52.022h69.16v3.185H10.92v-3.185z" fill="#FDF516"/><path d="M50.505 52.022c0 2.73-2.275 5.005-5.005 5.005s-5.005-2.275-5.005-5.005 2.275-5.005 5.005-5.005 5.005 2.275 5.005 5.005z" fill="#3E4347"/><path d="M45.5 54.297a2.275 2.275 0 100-4.55 2.275 2.275 0 000 4.55z" fill="#fff"/><path d="M31.85 61.273h27.3v9.859h-27.3v-9.859z" fill="#94989B"/><path d="M39.13 68.098h3.185v7.129H39.13v-7.129zm9.555 0h3.185v7.129h-3.185v-7.129z" fill="#3E4347"/><path d="M9.403 61.273h72.345v4.247H9.403v-4.247z" fill="#94989B"/><path d="M36.552 77.35h17.745v6.522H36.552V77.35z" fill="#F14E3A"/><path d="M81.597 46.865c-.152.91-1.062 1.517-2.124 1.365l-14.105-2.427c-.91-.151-1.668-1.061-1.516-1.971l.606-3.185c.152-.91 1.062-1.517 2.124-1.365l14.105 2.426c.91.152 1.668 1.062 1.516 1.972l-.606 3.185zm-54.752-3.033c.152.91-.455 1.82-1.517 1.971L11.223 48.23c-.91.152-1.971-.455-2.123-1.365l-.607-3.185c-.151-.91.455-1.82 1.517-1.972l14.105-2.426c.91-.152 1.972.455 2.123 1.365l.607 3.185z" fill="#3E4347"/><path d="M76 103c11.046 0 20-8.954 20-20s-8.954-20-20-20-20 8.954-20 20 8.954 20 20 20z" fill="#4BD37B"/><path d="M84.875 70.875L71.094 85.05 66.5 80.325l-4.594 4.725 9.188 9.45 18.375-18.9-4.594-4.725z" fill="#fff"/></svg>